<?xml version="1.0" encoding="UTF-8"?>
<svg width="1000px" height="750px" viewBox="0 0 1000 750" version="1.1" xmlns="http://www.w3.org/2000/svg" xmlns:xlink="http://www.w3.org/1999/xlink">
    <title>logoDark</title>
    <g id="logoDark" stroke="none" stroke-width="1" fill="none" fill-rule="evenodd">
        <path d="M289.5785,291.267716 C296.4275,292.999716 303.3905,294.603716 310.3235,296.041716 C320.387753,298.155103 329.608655,300.122146 339.527192,301.688438 C339.533843,301.689488 339.54382,301.691063 339.557122,301.693163 C341.378447,299.427307 342.747039,297.737539 343.662898,296.623857 C344.578756,295.510176 345.34731,294.601181 345.96856,293.896872 C345.955967,293.895196 345.946485,293.893935 345.940112,293.89309 C341.757841,293.338531 322.943078,291.496294 289.4945,288.365716 C288.4595,289.159716 285.9495,290.324716 289.5785,291.267716 Z" id="gliderWing" fill="#FFFFFF"></path>
        <path d="M359.5899,290.3333 C357.7089,291.4893 355.2389,290.9213 353.5569,290.5993 C356.7739,287.4333 360.7349,284.4443 365.2979,282.9793 C366.4159,284.0763 360.9159,289.4623 359.5899,290.3333 L359.5899,290.3333 Z M362.4319,293.9263 C366.7899,288.6593 369.0369,285.0163 369.4309,280.8943 C369.4859,280.2373 368.9109,280.0113 368.5289,280.1133 C364.8779,281.2573 361.6209,282.8633 358.7449,284.6873 C354.1969,287.6113 350.7039,291.0553 348.0749,294.0393 L348.0619,294.0743 L342.0099,301.8213 C340.8199,303.5333 339.5809,305.4483 338.1179,307.5983 C338.1709,307.5363 338.2249,307.4743 338.2779,307.4133 C338.2069,307.4963 338.1309,307.5913 338.0509,307.6973 C337.6299,308.3143 337.1909,308.9503 336.7289,309.6063 C334.1239,313.5553 329.0059,321.7073 319.3569,332.8173 L313.7009,329.7253 L319.0529,328.9973 L320.8649,327.7483 L312.6159,326.0323 L299.6139,327.7483 C298.4059,328.5813 297.8019,328.9973 297.8019,328.9973 L302.9879,329.7253 L315.1049,344.0513 L315.3439,343.7873 C315.3489,343.7893 315.3549,343.7933 315.3599,343.7943 C319.3819,339.4513 322.8959,335.5103 325.7499,332.2513 C327.2449,330.5433 329.7289,327.8713 332.4569,324.9743 C334.9019,322.2123 337.3979,319.4033 339.7849,316.7453 C347.2509,308.4343 353.7819,301.8123 353.8589,301.8053 C369.3789,300.3503 381.0079,299.1343 388.7469,298.1593 C400.4869,296.6973 412.1869,294.9473 423.8139,292.8653 C428.4059,292.0373 429.3739,290.9093 430.3519,288.6333 L362.4319,293.9263 Z" id="gliderBase" fill="#FFFFFF"></path>
        <path d="M620.087613,410.970177 C629.950655,410.970177 637.598691,409.342784 643.031722,406.087997 C644.703424,405.086524 646.145267,403.897275 647.357251,402.52025 C648.569235,401.143225 649.175227,399.369784 649.175227,397.199926 L649.175227,397.199926 L649.175227,369.158689 C649.175227,365.236254 648.464753,361.83542 647.043807,358.956186 C645.62286,356.076951 643.595921,353.698454 640.962991,351.820692 C638.33006,349.942931 635.153827,348.545042 631.43429,347.627025 C627.714753,346.709008 623.598187,346.25 619.084592,346.25 C616.159114,346.25 613.045569,346.45864 609.743958,346.87592 C606.442346,347.293201 603.579557,347.960849 601.155589,348.878866 C598.982377,349.796883 597.373364,350.902676 596.32855,352.196244 C595.283736,353.489813 594.761329,355.221527 594.761329,357.391384 C594.761329,359.060506 595.137462,360.667035 595.889728,362.210972 C596.641994,363.754909 597.56143,364.90243 598.648036,365.653535 C601.072004,364.652062 603.78852,363.817501 606.797583,363.149853 C609.806647,362.482204 612.899295,362.14838 616.075529,362.14838 C620.087613,362.14838 623.159366,362.66998 625.290785,363.713181 C627.422205,364.756382 628.487915,366.488095 628.487915,368.908321 L628.487915,368.908321 L628.487915,369.78461 L612.063444,371.537187 C604.875126,372.288292 599.567472,374.207781 596.140483,377.295655 C592.713494,380.38353 591,384.806701 591,390.565169 C591,393.986868 591.689577,396.991286 593.068731,399.578424 C594.447885,402.165562 596.412135,404.293692 598.96148,405.962813 C601.510826,407.631934 604.561682,408.883775 608.114048,409.718336 C611.666415,410.552896 615.657603,410.970177 620.087613,410.970177 Z M620.087613,395.447349 C616.994965,395.447349 614.800856,394.925749 613.505287,393.882548 C612.209718,392.839347 611.561934,391.483186 611.561934,389.814065 C611.561934,388.144944 612.314199,386.893103 613.818731,386.058542 C615.323263,385.223981 617.24572,384.723245 619.586103,384.556333 L619.586103,384.556333 L628.613293,383.805228 L628.613293,393.819956 C627.777442,394.320692 626.502769,394.717108 624.789275,395.009205 C623.07578,395.301301 621.50856,395.447349 620.087613,395.447349 Z M673.874622,431.25 C675.79708,431.25 677.677744,431.103952 679.516616,430.811856 C681.355488,430.519759 682.69285,430.248527 683.528701,429.998159 L683.528701,429.998159 L683.528701,409.217599 C686.621349,410.302528 689.964753,410.844993 693.558912,410.844993 C698.323263,410.844993 702.648792,410.177344 706.535498,408.842047 C710.422205,407.50675 713.744713,405.482941 716.503021,402.770619 C719.261329,400.058297 721.392749,396.69919 722.897281,392.693299 C724.401813,388.687408 725.154079,384.013868 725.154079,378.67268 C725.154079,373.081124 724.276435,368.261537 722.521148,364.213918 C720.765861,360.166298 718.341893,356.807192 715.249245,354.136598 C712.156596,351.466004 708.457956,349.483922 704.153323,348.190353 C699.848691,346.896784 695.188822,346.25 690.173716,346.25 C685.409366,346.25 681.104733,346.750736 677.259819,347.752209 C673.414904,348.753682 670.196878,350.088979 667.60574,351.7581 C665.934038,352.926485 664.617573,354.220054 663.656344,355.638807 C662.695116,357.05756 662.214502,358.893594 662.214502,361.146907 L662.214502,361.146907 L662.214502,421.235272 C662.214502,423.321674 662.465257,425.011659 662.966767,426.305228 C663.468278,427.598797 664.220544,428.621134 665.223565,429.372239 C666.226586,430.123343 667.459466,430.62408 668.922205,430.874448 C670.384945,431.124816 672.03575,431.25 673.874622,431.25 Z M690.424471,394.070324 C689.08711,394.070324 687.833333,393.903412 686.663142,393.569588 C685.492951,393.235763 684.406344,392.818483 683.403323,392.317747 L683.403323,392.317747 L683.403323,364.777246 C684.322759,364.27651 685.409366,363.838365 686.663142,363.462813 C687.916918,363.087261 689.337865,362.899485 690.925982,362.899485 C694.938066,362.899485 698.009819,364.193054 700.141239,366.780191 C702.272659,369.367329 703.338369,373.331492 703.338369,378.67268 C703.338369,388.937776 699.033736,394.070324 690.424471,394.070324 Z M747.220544,431.25 C749.143001,431.25 751.023666,431.103952 752.862538,430.811856 C754.70141,430.519759 756.038771,430.248527 756.874622,429.998159 L756.874622,429.998159 L756.874622,409.217599 C759.967271,410.302528 763.310675,410.844993 766.904834,410.844993 C771.669184,410.844993 775.994713,410.177344 779.88142,408.842047 C783.768127,407.50675 787.090634,405.482941 789.848943,402.770619 C792.607251,400.058297 794.738671,396.69919 796.243202,392.693299 C797.747734,388.687408 798.5,384.013868 798.5,378.67268 C798.5,373.081124 797.622356,368.261537 795.867069,364.213918 C794.111782,360.166298 791.687815,356.807192 788.595166,354.136598 C785.502518,351.466004 781.803877,349.483922 777.499245,348.190353 C773.194612,346.896784 768.534743,346.25 763.519637,346.25 C758.755287,346.25 754.450655,346.750736 750.60574,347.752209 C746.760826,348.753682 743.5428,350.088979 740.951662,351.7581 C739.27996,352.926485 737.963494,354.220054 737.002266,355.638807 C736.041037,357.05756 735.560423,358.893594 735.560423,361.146907 L735.560423,361.146907 L735.560423,421.235272 C735.560423,423.321674 735.811178,425.011659 736.312689,426.305228 C736.814199,427.598797 737.566465,428.621134 738.569486,429.372239 C739.572508,430.123343 740.805388,430.62408 742.268127,430.874448 C743.730866,431.124816 745.381672,431.25 747.220544,431.25 Z M763.770393,394.070324 C762.433031,394.070324 761.179255,393.903412 760.009063,393.569588 C758.838872,393.235763 757.752266,392.818483 756.749245,392.317747 L756.749245,392.317747 L756.749245,364.777246 C757.668681,364.27651 758.755287,363.838365 760.009063,363.462813 C761.26284,363.087261 762.683787,362.899485 764.271903,362.899485 C768.283988,362.899485 771.35574,364.193054 773.48716,366.780191 C775.61858,369.367329 776.68429,373.331492 776.68429,378.67268 C776.68429,388.937776 772.379658,394.070324 763.770393,394.070324 Z" id="app" fill-opacity="0.6" fill="#FFFFFF" fill-rule="nonzero"></path>
        <path d="M370.520561,410.671244 C375.514034,410.671244 379.924935,410.068432 383.753264,408.862808 C387.581593,407.657184 390.702513,406.264481 393.116025,404.684697 C396.777905,402.356596 398.608845,399.238602 398.608845,395.330717 L398.608845,395.330717 L398.608845,336.213565 C398.608845,334.134903 398.359171,332.451186 397.859824,331.162416 C397.360477,329.873645 396.611456,328.855101 395.612761,328.106783 C394.614067,327.358464 393.386505,326.859585 391.930075,326.610146 C390.473646,326.360706 388.829961,326.235987 386.999021,326.235987 C385.084856,326.235987 383.212304,326.381493 381.381364,326.672506 C379.550424,326.963518 378.218832,327.233744 377.386586,327.483184 L377.386586,327.483184 L377.386586,347.68778 C376.387892,347.272048 375.097911,346.918675 373.516645,346.627663 C371.935379,346.33665 370.3125,346.191143 368.648009,346.191143 C364.070659,346.191143 359.805401,346.835529 355.852236,348.124299 C351.89907,349.41307 348.445251,351.387799 345.49078,354.048487 C342.536309,356.709174 340.226828,360.05582 338.562337,364.088425 C336.897846,368.12103 336.065601,372.881166 336.065601,378.368834 C336.065601,383.357623 336.835428,387.826747 338.375082,391.776205 C339.914736,395.725663 342.161798,399.113883 345.11627,401.940863 C348.070741,404.767844 351.691008,406.929652 355.977072,408.426289 C360.263136,409.922926 365.110966,410.671244 370.520561,410.671244 Z M370.645398,393.9588 C366.400946,393.9588 363.155189,392.649243 360.908127,390.030129 C358.661064,387.411015 357.537533,383.523916 357.537533,378.368834 C357.537533,373.130605 358.744289,369.22272 361.1578,366.645179 C363.571312,364.067638 367.025131,362.778868 371.519256,362.778868 C373.849543,362.778868 375.846932,363.277747 377.511423,364.275504 L377.511423,364.275504 L377.511423,391.713845 C376.845627,392.295871 375.909351,392.815536 374.702595,393.272842 C373.495839,393.730148 372.14344,393.9588 370.645398,393.9588 Z M424.075555,409.673487 C425.906495,409.673487 427.716629,409.52798 429.505956,409.236967 C431.295284,408.945955 432.647683,408.717302 433.563153,408.551009 L433.563153,408.551009 L433.563153,357.790078 C433.563153,355.711416 433.292673,354.0277 432.751713,352.738929 C432.210754,351.450159 431.440927,350.431614 430.442232,349.683296 C429.443538,348.934978 428.215976,348.436099 426.759546,348.186659 C425.303117,347.93722 423.659432,347.8125 421.828492,347.8125 C419.997552,347.8125 418.187418,347.958006 416.398091,348.249019 C414.608763,348.540032 413.256364,348.768685 412.340894,348.934978 L412.340894,348.934978 L412.340894,399.695908 C412.340894,401.77457 412.611374,403.458287 413.152334,404.747057 C413.693293,406.035828 414.46312,407.054372 415.461815,407.802691 C416.460509,408.551009 417.688071,409.049888 419.144501,409.299327 C420.60093,409.548767 422.244615,409.673487 424.075555,409.673487 Z M497.229928,409.673487 C499.144093,409.673487 500.995839,409.548767 502.785166,409.299327 C504.574494,409.049888 505.885281,408.800448 506.717526,408.551009 L506.717526,408.551009 L506.717526,369.513733 C506.717526,362.196842 504.179178,356.480521 499.10248,352.36477 C494.025783,348.249019 486.785248,346.191143 477.380875,346.191143 C472.137728,346.191143 467.373123,346.814742 463.087059,348.061939 C458.800995,349.309137 455.243146,350.930493 452.413512,352.926009 C450.749021,354.09006 449.438234,355.37883 448.481152,356.792321 C447.52407,358.205811 447.045529,360.035034 447.045529,362.279989 L447.045529,362.279989 L447.045529,399.695908 C447.045529,401.77457 447.316008,403.458287 447.856968,404.747057 C448.397928,406.035828 449.167755,407.054372 450.166449,407.802691 C451.165144,408.551009 452.392706,409.049888 453.849135,409.299327 C455.305565,409.548767 456.949249,409.673487 458.780189,409.673487 C460.694354,409.673487 462.5461,409.548767 464.335428,409.299327 C466.124755,409.049888 467.435542,408.800448 468.267787,408.551009 L468.267787,408.551009 L468.267787,365.273262 C469.432931,364.441797 470.826942,363.818199 472.44982,363.402466 C474.072699,362.986734 475.716384,362.778868 477.380875,362.778868 C479.877611,362.778868 481.854194,363.38168 483.310623,364.587304 C484.767053,365.792928 485.495268,367.68451 485.495268,370.262052 L485.495268,370.262052 L485.495268,399.695908 C485.495268,401.77457 485.765747,403.458287 486.306707,404.747057 C486.847666,406.035828 487.617493,407.054372 488.616188,407.802691 C489.614883,408.551009 490.842445,409.049888 492.298874,409.299327 C493.755304,409.548767 495.398988,409.673487 497.229928,409.673487 Z M549.332735,346 C554.076534,346 558.383404,346.602812 562.253345,347.808436 C566.123287,349.01406 569.38985,350.573057 572.053035,352.485426 C576.836075,355.830414 577.421018,362.767072 577.421018,366.27262 L577.421018,366.27262 L577.421018,405.491312 C577.421018,409.898075 576.588773,413.702027 574.924282,416.903167 C573.259791,420.104307 570.991922,422.764994 568.120676,424.88523 C565.249429,427.005465 561.878835,428.564462 558.008894,429.56222 C554.138952,430.559978 549.998531,431.058857 545.587631,431.058857 C538.014197,431.058857 532.063642,430.040312 527.735966,428.003223 C523.40829,425.966134 521.244452,422.661061 521.244452,418.088004 C521.244452,416.175635 521.639768,414.491919 522.430401,413.036855 C523.221035,411.581792 524.115698,410.480101 525.114393,409.731783 C527.527905,411.062126 530.253508,412.184604 533.291204,413.099215 C536.3289,414.013827 539.470627,414.471132 542.716384,414.471132 C547.210509,414.471132 550.789164,413.722814 553.45235,412.226177 C556.10642,410.734663 557.437997,408.334787 557.447081,405.026549 L557.447081,405.026549 L557.447128,404.992433 C557.452832,404.688275 557.452816,404.536649 557.447081,404.537555 C553.598024,405.145481 548.488046,405.241872 544.963446,405.241872 C541.218342,405.241872 537.660493,404.680633 534.289899,403.558156 C530.919305,402.435678 527.964834,400.689602 525.426485,398.319927 C522.888136,395.950252 520.849135,392.894619 519.309481,389.153027 C517.769827,385.411435 517,380.963098 517,375.808016 C517,370.73608 517.811439,366.329316 519.434318,362.587724 C521.057196,358.846132 523.304259,355.748926 526.175506,353.296104 C529.046753,350.843283 532.458959,349.01406 536.412125,347.808436 C540.36529,346.602812 544.672161,346 549.332735,346 Z M550.33143,362.587724 C546.253427,362.587724 543.194925,363.730988 541.155924,366.017517 C539.116922,368.304045 538.097422,371.567545 538.097422,375.808016 C538.097422,380.630512 539.116922,384.101878 541.155924,386.222113 C543.194925,388.342349 545.795692,389.402466 548.958225,389.402466 C552.370431,389.402466 555.075228,388.612575 557.072617,387.032791 L557.072617,387.032791 L557.072617,366.424589 C557.072617,365.36207 556.126244,363.564016 554.513463,363.086603 C552.900682,362.60919 551.99592,362.587724 550.33143,362.587724 Z" id="ding" fill="#FFFFFF" fill-rule="nonzero"></path>
        <path d="M257.4216,400.8769 L257.4206,405.6829 C257.4206,410.0899 256.5886,413.8939 254.9246,417.0949 C253.2596,420.2959 250.9916,422.9569 248.1206,425.0769 C245.2496,427.1979 241.8786,428.7569 238.0086,429.7539 C234.1386,430.7519 229.9986,431.2509 225.5876,431.2509 C218.0146,431.2509 212.0636,430.2319 207.7356,428.1949 C203.4086,426.1579 201.2446,422.8529 201.2446,418.2799 C201.2446,416.3679 201.6396,414.6839 202.4306,413.2289 C203.2206,411.7739 204.1156,410.6719 205.1146,409.9239 C207.5276,411.2539 210.2536,412.3769 213.2916,413.2909 C215.6066,413.9889 217.9836,414.4199 220.4196,414.5859 L220.4196,414.5859 L220.4096,414.6069 C220.6896,414.6169 220.9656,414.6249 221.2366,414.6309 C221.7256,414.6529 222.2196,414.6629 222.7166,414.6629 C223.3186,414.6629 223.9046,414.6499 224.4736,414.6229 C228.9176,414.4709 232.0516,413.7159 235.7046,412.3849 C242.5996,409.8709 249.9316,405.8809 257.4216,400.8769 L257.4216,400.8769 Z M315.4476,347.8659 C316.5056,347.9239 317.4896,348.0319 318.4016,348.1879 C319.8576,348.4369 321.0856,348.9359 322.0836,349.6839 C323.0826,350.4329 323.8526,351.4509 324.3936,352.7399 C324.9346,354.0289 325.2046,355.7119 325.2046,357.7909 L325.2046,408.5519 C324.2896,408.7179 322.9366,408.9469 321.1476,409.2379 C319.3586,409.5289 317.5486,409.6749 315.7176,409.6749 C313.8866,409.6749 312.2426,409.5499 310.7866,409.2999 C309.3296,409.0509 308.1026,408.5519 307.1036,407.8039 C306.1046,407.0549 305.3346,406.0369 304.7936,404.7479 C304.2526,403.4589 303.9826,401.7759 303.9826,399.6969 L303.9826,360.3129 C307.6986,356.4299 311.2886,352.5329 314.7106,348.6949 L315.4476,347.8659 Z M290.1264,374.1289 L290.1254,408.5519 C289.2104,408.7179 287.8574,408.9469 286.0684,409.2379 C284.2794,409.5289 282.4694,409.6749 280.6384,409.6749 C278.8074,409.6749 277.1634,409.5499 275.7074,409.2999 C274.2504,409.0509 273.0234,408.5519 272.0244,407.8039 C271.0254,407.0549 270.2554,406.0369 269.7144,404.7479 C269.1744,403.4589 268.9034,401.7759 268.9034,399.6969 L268.9034,399.6969 L268.9034,392.5399 C276.0434,386.9669 283.1964,380.7009 290.1264,374.1289 L290.1264,374.1289 Z M229.3326,346.1916 C234.0766,346.1916 238.3836,346.7946 242.2536,348.0006 C246.1236,349.2066 249.3896,350.7656 252.0526,352.6776 C256.7366,355.9526 257.3946,362.6716 257.4206,366.2416 L257.4206,366.2416 L257.4206,366.4646 L257.4216,379.1606 C250.4426,382.3136 243.5176,384.3236 237.0716,384.5176 L237.0716,384.5176 L237.0726,366.6166 C237.0726,365.5546 236.1266,363.7556 234.5136,363.2786 C232.9006,362.8016 231.9956,362.7796 230.3316,362.7796 C226.2536,362.7796 223.1946,363.9226 221.1556,366.2096 C219.1176,368.4956 218.0976,371.7586 218.0976,375.9966 C217.6656,390.8376 229.6566,393.6606 248.8616,387.9516 C257.2906,385.4456 265.1246,381.4056 273.8026,375.1566 C276.8556,373.1896 280.4606,370.2576 284.1746,367.0096 C290.1006,362.0146 296.5656,356.0656 303.9126,349.0026 C303.9356,348.9956 303.9596,348.9916 303.9826,348.9856 L303.9826,348.9856 L303.9826,348.9356 C304.8976,348.7696 306.2506,348.5406 308.0396,348.2496 C309.0626,348.0836 310.0916,347.9646 311.1276,347.8936 L311.1276,347.8936 L311.5446,347.8696 C311.0946,348.3456 310.6146,348.8396 310.1546,349.3226 C310.1536,349.3266 310.1536,349.3306 310.1526,349.3356 C309.4046,350.1186 308.6426,350.9116 307.8696,351.7096 C307.8576,351.7226 307.8446,351.7356 307.8326,351.7486 C306.6866,352.9326 305.5076,354.1346 304.3116,355.3446 L304.3116,355.3446 L303.9836,355.6786 C281.1686,378.6946 249.7316,405.3926 226.0556,405.3926 C225.1456,405.3926 224.2716,405.3956 223.4326,405.4006 C220.2466,405.2696 217.1986,404.7186 214.2896,403.7506 C210.9196,402.6276 207.9646,400.8816 205.4266,398.5116 C202.8886,396.1426 200.8496,393.0866 199.3096,389.3456 C197.7696,385.6036 196.9996,381.1556 196.9996,376.0006 C196.9996,370.9286 197.8116,366.5216 199.4346,362.7796 C201.0576,359.0386 203.3046,355.9406 206.1756,353.4886 C209.0466,351.0356 212.4586,349.2066 216.4126,348.0006 C220.3656,346.7946 224.6726,346.1916 229.3326,346.1916 Z M278.3907,326.2366 C280.2217,326.2366 281.8657,326.3616 283.3217,326.6116 C284.7787,326.8606 286.0057,327.3596 287.0047,328.1076 C288.0037,328.8566 288.7737,329.8746 289.3147,331.1636 C289.8547,332.4526 290.1257,334.1356 290.1257,336.2146 L290.1257,336.2146 L290.1267,357.5966 C283.6217,363.0706 276.3677,368.5056 268.9027,373.0446 L268.9027,373.0446 L268.9037,327.3596 C269.8187,327.1936 271.1717,326.9646 272.9607,326.6736 C274.7497,326.3826 276.5597,326.2366 278.3907,326.2366 Z" id="gli" fill="#FFFFFF"></path>
    </g>
</svg>