<?xml version="1.0" encoding="UTF-8"?>
<svg width="1000px" height="750px" viewBox="0 0 1000 750" version="1.1" xmlns="http://www.w3.org/2000/svg" xmlns:xlink="http://www.w3.org/1999/xlink">
    <title>logo2</title>
    <g id="logo2" stroke="none" stroke-width="1" fill="none" fill-rule="evenodd">
        <path d="M157.5785,291.167716 C164.4275,292.899716 171.3905,294.503716 178.3235,295.941716 C188.387753,298.055103 197.608655,300.022146 207.527192,301.588438 C207.533843,301.589488 207.54382,301.591063 207.557122,301.593163 C209.378447,299.327307 210.747039,297.637539 211.662898,296.523857 C212.578756,295.410176 213.34731,294.501181 213.96856,293.796872 C213.955967,293.795196 213.946485,293.793935 213.940112,293.79309 C209.757841,293.238531 190.943078,291.396294 157.4945,288.265716 C156.4595,289.059716 153.9495,290.224716 157.5785,291.167716 Z" id="gliderWing" fill="#398DE0"></path>
        <path d="M227.5903,290.243416 C225.7093,291.399416 223.2393,290.831416 221.5573,290.509416 C224.7743,287.343416 228.7353,284.354416 233.2983,282.889416 C234.4163,283.986416 228.9163,289.372416 227.5903,290.243416 L227.5903,290.243416 Z M230.4323,293.836416 C234.7903,288.569416 237.0373,284.926416 237.4313,280.804416 C237.4863,280.147416 236.9113,279.921416 236.5293,280.023416 C232.8783,281.167416 229.6213,282.773416 226.7453,284.597416 C222.1973,287.521416 218.7043,290.965416 216.0753,293.949416 L216.0623,293.984416 L210.0103,301.731416 C208.8203,303.443416 207.5813,305.358416 206.1183,307.508416 C206.1713,307.446416 206.2253,307.384416 206.2783,307.323416 C206.2073,307.406416 206.1313,307.501416 206.0513,307.607416 C205.6303,308.224416 205.1913,308.860416 204.7293,309.516416 C202.1243,313.465416 197.0063,321.617416 187.3573,332.727416 L181.7013,329.635416 L187.0533,328.907416 L188.8653,327.658416 L180.6163,325.942416 L167.6143,327.658416 C166.4063,328.491416 165.8023,328.907416 165.8023,328.907416 L170.9883,329.635416 L183.1053,343.961416 L183.3443,343.697416 C183.3493,343.699416 183.3553,343.703416 183.3603,343.704416 C187.3823,339.361416 190.8963,335.420416 193.7503,332.161416 C195.2453,330.453416 197.7293,327.781416 200.4573,324.884416 C202.9023,322.122416 205.3983,319.313416 207.7853,316.655416 C215.2513,308.344416 221.7823,301.722416 221.8593,301.715416 C237.3793,300.260416 249.0083,299.044416 256.7473,298.069416 C268.4873,296.607416 280.1873,294.857416 291.8143,292.775416 C296.4063,291.947416 297.3743,290.819416 298.3523,288.543416 L230.4323,293.836416 Z" id="gliderBase" fill="#398DE0"></path>
        <path d="M687.096323,410.910116 C690.83733,410.910116 693.788569,409.738945 695.95004,407.396602 C698.111511,405.05426 699.192247,402.126332 699.192247,398.612819 C699.192247,395.099305 698.111511,392.171377 695.95004,389.829035 C693.788569,387.486693 690.83733,386.315521 687.096323,386.315521 C683.355316,386.315521 680.404077,387.486693 678.242606,389.829035 C676.081135,392.171377 675.0004,395.099305 675.0004,398.612819 C675.0004,402.126332 676.081135,405.05426 678.242606,407.396602 C680.404077,409.738945 683.355316,410.910116 687.096323,410.910116 Z M741.468026,410.659151 C747.204237,410.659151 751.693446,409.718031 754.935652,407.835792 C758.177858,405.953552 759.798961,403.297503 759.798961,399.867645 C759.798961,397.943578 759.383294,396.29139 758.551959,394.911081 C757.720624,393.530772 756.473621,392.255032 754.810952,391.083861 C753.397682,391.753102 751.776579,392.380515 749.947642,392.966101 C748.118705,393.551686 745.957235,393.844479 743.46323,393.844479 C739.223422,393.844479 735.627898,392.547825 732.676659,389.954518 C729.72542,387.36121 728.2498,383.471249 728.2498,378.284633 C728.2498,375.691326 728.665468,373.432638 729.496803,371.508572 C730.328138,369.584505 731.429657,367.974144 732.801359,366.67749 C734.173062,365.380837 735.794165,364.397889 737.664669,363.728649 C739.535172,363.059408 741.509593,362.724788 743.58793,362.724788 C745.915668,362.724788 748.077139,363.038494 750.072342,363.665907 C752.067546,364.293321 753.771783,364.941647 755.185052,365.610888 C756.182654,364.607027 757.055556,363.414942 757.803757,362.034633 C758.551959,360.654324 758.926059,359.169447 758.926059,357.58 C758.926059,354.150142 757.304956,351.347696 754.06275,349.172664 C750.820544,346.997632 746.206635,345.910116 740.221024,345.910116 C735.731815,345.910116 731.471223,346.579357 727.439249,347.917838 C723.407275,349.256319 719.853318,351.264041 716.777378,353.941004 C713.701439,356.617967 711.269784,360.026911 709.482414,364.167838 C707.695044,368.308765 706.801359,373.139846 706.801359,378.661081 C706.801359,383.429421 707.632694,387.779485 709.295364,391.711274 C710.958034,395.643063 713.306555,399.01018 716.340928,401.812626 C719.3753,404.615071 723.01239,406.790103 727.252199,408.337722 C731.492007,409.885341 736.230616,410.659151 741.468026,410.659151 Z M800.451239,410.784633 C805.356115,410.784633 809.803757,410.073565 813.794165,408.651429 C817.784573,407.229292 821.213829,405.137915 824.081935,402.377297 C826.95004,399.61668 829.173861,396.207735 830.753398,392.150463 C832.332934,388.093192 833.122702,383.471249 833.122702,378.284633 C833.122702,373.432638 832.332934,368.998919 830.753398,364.983475 C829.173861,360.968031 826.95004,357.559086 824.081935,354.756641 C821.213829,351.954196 817.784573,349.779164 813.794165,348.231545 C809.803757,346.683925 805.356115,345.910116 800.451239,345.910116 C795.546363,345.910116 791.098721,346.663012 787.108314,348.168803 C783.117906,349.674595 779.688649,351.828713 776.820544,354.631158 C773.952438,357.433604 771.728617,360.842548 770.149081,364.857992 C768.569545,368.873436 767.779776,373.348983 767.779776,378.284633 C767.779776,383.303938 768.569545,387.821313 770.149081,391.836757 C771.728617,395.852201 773.952438,399.261146 776.820544,402.063591 C779.688649,404.866036 783.117906,407.020155 787.108314,408.525946 C791.098721,410.031738 795.546363,410.784633 800.451239,410.784633 Z M799.57594,394.095444 C796.084333,394.095444 793.361711,392.736049 791.408074,390.017259 C789.454437,387.298469 788.477618,383.387593 788.477618,378.284633 C788.477618,373.265328 789.433653,369.396281 791.345724,366.67749 C793.257794,363.9587 795.959633,362.599305 799.451239,362.599305 C802.942846,362.599305 805.644685,363.9587 807.556755,366.67749 C809.468825,369.396281 810.42486,373.265328 810.42486,378.284633 C810.42486,383.303938 809.489609,387.1939 807.619105,389.954518 C805.748601,392.715135 803.067546,394.095444 799.57594,394.095444 Z M926.523182,409.780772 C928.435252,409.780772 930.284972,409.65529 932.072342,409.404324 C933.859713,409.153359 935.169065,408.902394 936.0004,408.651429 L936.0004,408.651429 L936.0004,369.124402 C936.0004,364.857992 935.293765,361.23991 933.880496,358.270155 C932.467227,355.300399 930.57594,352.916229 928.206635,351.117645 C925.83733,349.319061 923.135492,348.001493 920.101119,347.164942 C917.066747,346.328391 913.970024,345.910116 910.810952,345.910116 C906.404876,345.910116 902.643086,346.453874 899.52558,347.54139 C896.408074,348.628906 893.602318,350.009215 891.108314,351.682317 C888.697442,349.75825 885.85012,348.3152 882.566347,347.353166 C879.282574,346.391133 875.936451,345.910116 872.527978,345.910116 C867.955636,345.910116 863.570344,346.537529 859.372103,347.792355 C855.173861,349.047182 851.661471,350.678456 848.834932,352.686178 C847.172263,353.857349 845.86291,355.112175 844.906875,356.450657 C843.95084,357.789138 843.472822,359.587722 843.472822,361.846409 L843.472822,361.846409 L843.472822,399.742162 C843.472822,401.833539 843.743006,403.527555 844.283374,404.824209 C844.823741,406.120862 845.592726,407.145637 846.590328,407.898533 C847.58793,408.651429 848.814149,409.153359 850.268985,409.404324 C851.723821,409.65529 853.365708,409.780772 855.194645,409.780772 C857.106715,409.780772 858.956435,409.65529 860.743805,409.404324 C862.531175,409.153359 863.840528,408.902394 864.671863,408.651429 L864.671863,408.651429 L864.671863,364.607027 C865.420064,364.188752 866.334533,363.749563 867.415268,363.28946 C868.496004,362.829357 869.784573,362.599305 871.280976,362.599305 C873.442446,362.599305 875.292167,363.163977 876.830136,364.293321 C878.368106,365.422664 879.137091,367.242162 879.137091,369.751815 L879.137091,369.751815 L879.137091,399.742162 C879.137091,401.833539 879.407275,403.527555 879.947642,404.824209 C880.48801,406.120862 881.256995,407.145637 882.254597,407.898533 C883.252199,408.651429 884.478418,409.153359 885.933254,409.404324 C887.38809,409.65529 889.029976,409.780772 890.858913,409.780772 C892.68785,409.780772 894.496004,409.65529 896.283374,409.404324 C898.070744,409.153359 899.421663,408.902394 900.336131,408.651429 L900.336131,408.651429 L900.336131,366.050077 C900.336131,365.757285 900.294565,365.443578 900.211431,365.108958 C900.876499,364.523372 901.874101,363.9587 903.204237,363.414942 C904.534373,362.871184 905.781375,362.599305 906.945244,362.599305 C909.356115,362.599305 911.268186,363.163977 912.681455,364.293321 C914.094725,365.422664 914.801359,367.242162 914.801359,369.751815 L914.801359,369.751815 L914.801359,399.742162 C914.801359,401.833539 915.071543,403.527555 915.611911,404.824209 C916.152278,406.120862 916.921263,407.145637 917.918865,407.898533 C918.916467,408.651429 920.142686,409.153359 921.597522,409.404324 C923.052358,409.65529 924.694245,409.780772 926.523182,409.780772 Z" id=".com" fill="#398DE0" fill-rule="nonzero"></path>
        <path d="M488.088013,410.880293 C497.951055,410.880293 505.599091,409.252899 511.032122,405.998113 C512.703824,404.99664 514.145667,403.807391 515.357651,402.430366 C516.569635,401.053341 517.175627,399.2799 517.175627,397.110042 L517.175627,397.110042 L517.175627,369.068805 C517.175627,365.14637 516.465153,361.745536 515.044207,358.866302 C513.62326,355.987067 511.596321,353.60857 508.963391,351.730808 C506.33046,349.853047 503.154227,348.455158 499.43469,347.537141 C495.715153,346.619124 491.598587,346.160116 487.084992,346.160116 C484.159514,346.160116 481.045969,346.368756 477.744358,346.786036 C474.442746,347.203317 471.579957,347.870965 469.155989,348.788982 C466.982777,349.706999 465.373764,350.812791 464.32895,352.10636 C463.284136,353.399929 462.761729,355.131643 462.761729,357.3015 C462.761729,358.970622 463.137862,360.577151 463.890128,362.121088 C464.642394,363.665025 465.56183,364.812546 466.648436,365.563651 C469.072404,364.562178 471.78892,363.727617 474.797983,363.059969 C477.807047,362.39232 480.899695,362.058496 484.075929,362.058496 C488.088013,362.058496 491.159766,362.580096 493.291185,363.623297 C495.422605,364.666498 496.488315,366.398211 496.488315,368.818437 L496.488315,368.818437 L496.488315,369.694726 L480.063844,371.447303 C472.875526,372.198408 467.567872,374.117897 464.140883,377.205771 C460.713894,380.293646 459.0004,384.716817 459.0004,390.475285 C459.0004,393.896984 459.689977,396.901402 461.069131,399.48854 C462.448285,402.075678 464.412535,404.203808 466.96188,405.872929 C469.511226,407.54205 472.562082,408.793891 476.114448,409.628452 C479.666815,410.463012 483.658003,410.880293 488.088013,410.880293 Z M488.088013,395.357465 C484.995365,395.357465 482.801256,394.835865 481.505687,393.792664 C480.210118,392.749463 479.562334,391.393302 479.562334,389.724181 C479.562334,388.05506 480.314599,386.803219 481.819131,385.968658 C483.323663,385.134097 485.24612,384.633361 487.586503,384.466449 L487.586503,384.466449 L496.613693,383.715344 L496.613693,393.730072 C495.777842,394.230808 494.503169,394.627224 492.789675,394.919321 C491.07618,395.211417 489.50896,395.357465 488.088013,395.357465 Z M541.875022,431.160116 C543.79748,431.160116 545.678144,431.014068 547.517016,430.721972 C549.355888,430.429875 550.69325,430.158643 551.529101,429.908275 L551.529101,429.908275 L551.529101,409.127715 C554.621749,410.212644 557.965153,410.755109 561.559312,410.755109 C566.323663,410.755109 570.649192,410.08746 574.535898,408.752163 C578.422605,407.416866 581.745113,405.393057 584.503421,402.680735 C587.261729,399.968412 589.393149,396.609306 590.897681,392.603415 C592.402213,388.597524 593.154479,383.923984 593.154479,378.582796 C593.154479,372.99124 592.276835,368.171653 590.521548,364.124033 C588.766261,360.076414 586.342293,356.717308 583.249645,354.046714 C580.156996,351.37612 576.458356,349.394038 572.153723,348.100469 C567.849091,346.8069 563.189222,346.160116 558.174116,346.160116 C553.409766,346.160116 549.105133,346.660852 545.260219,347.662325 C541.415304,348.663798 538.197278,349.999095 535.60614,351.668216 C533.934438,352.836601 532.617973,354.13017 531.656744,355.548923 C530.695516,356.967676 530.214902,358.803709 530.214902,361.057023 L530.214902,361.057023 L530.214902,421.145388 C530.214902,423.23179 530.465657,424.921775 530.967167,426.215344 C531.468678,427.508913 532.220944,428.53125 533.223965,429.282355 C534.226986,430.033459 535.459866,430.534195 536.922605,430.784564 C538.385345,431.034932 540.03615,431.160116 541.875022,431.160116 Z M558.424871,393.98044 C557.08751,393.98044 555.833733,393.813528 554.663542,393.479704 C553.493351,393.145879 552.406744,392.728599 551.403723,392.227863 L551.403723,392.227863 L551.403723,364.687362 C552.323159,364.186626 553.409766,363.748481 554.663542,363.372929 C555.917318,362.997377 557.338265,362.809601 558.926382,362.809601 C562.938466,362.809601 566.010219,364.103169 568.141639,366.690307 C570.273059,369.277445 571.338769,373.241608 571.338769,378.582796 C571.338769,388.847892 567.034136,393.98044 558.424871,393.98044 Z M615.220944,431.160116 C617.143401,431.160116 619.024066,431.014068 620.862938,430.721972 C622.70181,430.429875 624.039171,430.158643 624.875022,429.908275 L624.875022,429.908275 L624.875022,409.127715 C627.967671,410.212644 631.311075,410.755109 634.905234,410.755109 C639.669584,410.755109 643.995113,410.08746 647.88182,408.752163 C651.768527,407.416866 655.091034,405.393057 657.849343,402.680735 C660.607651,399.968412 662.739071,396.609306 664.243602,392.603415 C665.748134,388.597524 666.5004,383.923984 666.5004,378.582796 C666.5004,372.99124 665.622756,368.171653 663.867469,364.124033 C662.112182,360.076414 659.688215,356.717308 656.595566,354.046714 C653.502918,351.37612 649.804277,349.394038 645.499645,348.100469 C641.195012,346.8069 636.535143,346.160116 631.520037,346.160116 C626.755687,346.160116 622.451055,346.660852 618.60614,347.662325 C614.761226,348.663798 611.5432,349.999095 608.952062,351.668216 C607.28036,352.836601 605.963894,354.13017 605.002666,355.548923 C604.041437,356.967676 603.560823,358.803709 603.560823,361.057023 L603.560823,361.057023 L603.560823,421.145388 C603.560823,423.23179 603.811578,424.921775 604.313089,426.215344 C604.814599,427.508913 605.566865,428.53125 606.569886,429.282355 C607.572908,430.033459 608.805788,430.534195 610.268527,430.784564 C611.731266,431.034932 613.382072,431.160116 615.220944,431.160116 Z M631.770793,393.98044 C630.433431,393.98044 629.179655,393.813528 628.009463,393.479704 C626.839272,393.145879 625.752666,392.728599 624.749645,392.227863 L624.749645,392.227863 L624.749645,364.687362 C625.669081,364.186626 626.755687,363.748481 628.009463,363.372929 C629.26324,362.997377 630.684187,362.809601 632.272303,362.809601 C636.284388,362.809601 639.35614,364.103169 641.48756,366.690307 C643.61898,369.277445 644.68469,373.241608 644.68469,378.582796 C644.68469,388.847892 640.380058,393.98044 631.770793,393.98044 Z" id="app" fill="#7DB2E6" fill-rule="nonzero"></path>
        <path d="M238.520961,410.58136 C243.514434,410.58136 247.925335,409.978548 251.753664,408.772924 C255.581993,407.5673 258.702913,406.174597 261.116425,404.594813 C264.778305,402.266712 266.609245,399.148718 266.609245,395.240833 L266.609245,395.240833 L266.609245,336.123681 C266.609245,334.045019 266.359571,332.361302 265.860224,331.072532 C265.360877,329.783761 264.611856,328.765217 263.613161,328.016898 C262.614467,327.26858 261.386905,326.769701 259.930475,326.520262 C258.474046,326.270822 256.830361,326.146103 254.999421,326.146103 C253.085256,326.146103 251.212704,326.291609 249.381764,326.582622 C247.550824,326.873634 246.219232,327.14386 245.386986,327.3933 L245.386986,327.3933 L245.386986,347.597896 C244.388292,347.182164 243.098311,346.828791 241.517045,346.537779 C239.935779,346.246766 238.3129,346.101259 236.648409,346.101259 C232.071059,346.101259 227.805801,346.745645 223.852636,348.034415 C219.89947,349.323186 216.445651,351.297915 213.49118,353.958603 C210.536709,356.61929 208.227228,359.965936 206.562737,363.998541 C204.898246,368.031145 204.066001,372.791282 204.066001,378.27895 C204.066001,383.267739 204.835828,387.736863 206.375482,391.686321 C207.915136,395.635779 210.162198,399.023999 213.11667,401.850979 C216.071141,404.67796 219.691408,406.839768 223.977472,408.336405 C228.263536,409.833042 233.111366,410.58136 238.520961,410.58136 Z M238.645798,393.868916 C234.401346,393.868916 231.155589,392.559359 228.908527,389.940245 C226.661464,387.321131 225.537933,383.434032 225.537933,378.27895 C225.537933,373.040721 226.744689,369.132836 229.1582,366.555295 C231.571712,363.977754 235.025531,362.688984 239.519656,362.688984 C241.849943,362.688984 243.847332,363.187863 245.511823,364.18562 L245.511823,364.18562 L245.511823,391.623961 C244.846027,392.205987 243.909751,392.725652 242.702995,393.182958 C241.496239,393.640264 240.14384,393.868916 238.645798,393.868916 Z M292.075955,409.583603 C293.906895,409.583603 295.717029,409.438096 297.506356,409.147083 C299.295684,408.856071 300.648083,408.627418 301.563553,408.461125 L301.563553,408.461125 L301.563553,357.700194 C301.563553,355.621532 301.293073,353.937816 300.752113,352.649045 C300.211154,351.360275 299.441327,350.34173 298.442632,349.593412 C297.443938,348.845094 296.216376,348.346215 294.759946,348.096775 C293.303517,347.847336 291.659832,347.722616 289.828892,347.722616 C287.997952,347.722616 286.187818,347.868122 284.398491,348.159135 C282.609163,348.450148 281.256764,348.678801 280.341294,348.845094 L280.341294,348.845094 L280.341294,399.606024 C280.341294,401.684686 280.611774,403.368403 281.152734,404.657173 C281.693693,405.945944 282.46352,406.964488 283.462215,407.712807 C284.460909,408.461125 285.688471,408.960004 287.144901,409.209443 C288.60133,409.458883 290.245015,409.583603 292.075955,409.583603 Z M365.230328,409.583603 C367.144493,409.583603 368.996239,409.458883 370.785566,409.209443 C372.574894,408.960004 373.885681,408.710564 374.717926,408.461125 L374.717926,408.461125 L374.717926,369.423849 C374.717926,362.106958 372.179578,356.390637 367.10288,352.274886 C362.026183,348.159135 354.785648,346.101259 345.381275,346.101259 C340.138128,346.101259 335.373523,346.724858 331.087459,347.972055 C326.801395,349.219253 323.243546,350.840609 320.413912,352.836125 C318.749421,354.000176 317.438634,355.288946 316.481552,356.702437 C315.52447,358.115927 315.045929,359.94515 315.045929,362.190105 L315.045929,362.190105 L315.045929,399.606024 C315.045929,401.684686 315.316408,403.368403 315.857368,404.657173 C316.398328,405.945944 317.168155,406.964488 318.166849,407.712807 C319.165544,408.461125 320.393106,408.960004 321.849535,409.209443 C323.305965,409.458883 324.949649,409.583603 326.780589,409.583603 C328.694754,409.583603 330.5465,409.458883 332.335828,409.209443 C334.125155,408.960004 335.435942,408.710564 336.268187,408.461125 L336.268187,408.461125 L336.268187,365.183378 C337.433331,364.351913 338.827342,363.728315 340.45022,363.312582 C342.073099,362.89685 343.716784,362.688984 345.381275,362.688984 C347.878011,362.688984 349.854594,363.291796 351.311023,364.49742 C352.767453,365.703044 353.495668,367.594626 353.495668,370.172168 L353.495668,370.172168 L353.495668,399.606024 C353.495668,401.684686 353.766147,403.368403 354.307107,404.657173 C354.848066,405.945944 355.617893,406.964488 356.616588,407.712807 C357.615283,408.461125 358.842845,408.960004 360.299274,409.209443 C361.755704,409.458883 363.399388,409.583603 365.230328,409.583603 Z M417.333135,345.910116 C422.076934,345.910116 426.383804,346.512928 430.253745,347.718552 C434.123687,348.924176 437.39025,350.483173 440.053435,352.395542 C444.836475,355.74053 445.421418,362.677188 445.421418,366.182736 L445.421418,366.182736 L445.421418,405.401428 C445.421418,409.808191 444.589173,413.612143 442.924682,416.813283 C441.260191,420.014423 438.992322,422.67511 436.121076,424.795346 C433.249829,426.915581 429.879235,428.474578 426.009294,429.472336 C422.139352,430.470094 417.998931,430.968972 413.588031,430.968972 C406.014597,430.968972 400.064042,429.950428 395.736366,427.913339 C391.40869,425.87625 389.244852,422.571177 389.244852,417.99812 C389.244852,416.085751 389.640168,414.402035 390.430801,412.946971 C391.221435,411.491908 392.116098,410.390217 393.114793,409.641898 C395.528305,410.972242 398.253908,412.09472 401.291604,413.009331 C404.3293,413.923943 407.471027,414.381248 410.716784,414.381248 C415.210909,414.381248 418.789564,413.63293 421.45275,412.136293 C424.10682,410.644779 425.438397,408.244903 425.447481,404.936665 L425.447481,404.936665 L425.447528,404.902549 C425.453232,404.598391 425.453216,404.446765 425.447481,404.447671 C421.598424,405.055597 416.488446,405.151988 412.963846,405.151988 C409.218742,405.151988 405.660893,404.590749 402.290299,403.468272 C398.919705,402.345794 395.965234,400.599718 393.426885,398.230043 C390.888536,395.860368 388.849535,392.804735 387.309881,389.063143 C385.770227,385.321551 385.0004,380.873214 385.0004,375.718132 C385.0004,370.646196 385.811839,366.239432 387.434718,362.49784 C389.057596,358.756248 391.304659,355.659042 394.175906,353.20622 C397.047153,350.753399 400.459359,348.924176 404.412525,347.718552 C408.36569,346.512928 412.672561,345.910116 417.333135,345.910116 Z M418.33183,362.49784 C414.253827,362.49784 411.195325,363.641104 409.156324,365.927633 C407.117322,368.214161 406.097822,371.477661 406.097822,375.718132 C406.097822,380.540628 407.117322,384.011994 409.156324,386.132229 C411.195325,388.252465 413.796092,389.312582 416.958625,389.312582 C420.370831,389.312582 423.075628,388.522691 425.073017,386.942907 L425.073017,386.942907 L425.073017,366.334705 C425.073017,365.272186 424.126644,363.474132 422.513863,362.996719 C420.901082,362.519306 419.99632,362.49784 418.33183,362.49784 Z" id="ding" fill="#398DE0" fill-rule="nonzero"></path>
        <path d="M125.422,400.787016 L125.421,405.593016 C125.421,410.000016 124.589,413.804016 122.925,417.005016 C121.26,420.206016 118.992,422.867016 116.121,424.987016 C113.25,427.108016 109.879,428.667016 106.009,429.664016 C102.139,430.662016 97.999,431.161016 93.588,431.161016 C86.015,431.161016 80.064,430.142016 75.736,428.105016 C71.409,426.068016 69.245,422.763016 69.245,418.190016 C69.245,416.278016 69.64,414.594016 70.431,413.139016 C71.221,411.684016 72.116,410.582016 73.115,409.834016 C75.528,411.164016 78.254,412.287016 81.292,413.201016 C83.607,413.899016 85.984,414.330016 88.42,414.496016 L88.42,414.496016 L88.41,414.517016 C88.69,414.527016 88.966,414.535016 89.237,414.541016 C89.726,414.563016 90.22,414.573016 90.717,414.573016 C91.319,414.573016 91.905,414.560016 92.474,414.533016 C96.918,414.381016 100.052,413.626016 103.705,412.295016 C110.6,409.781016 117.932,405.791016 125.422,400.787016 L125.422,400.787016 Z M183.448,347.776016 C184.506,347.834016 185.49,347.942016 186.402,348.098016 C187.858,348.347016 189.086,348.846016 190.084,349.594016 C191.083,350.343016 191.853,351.361016 192.394,352.650016 C192.935,353.939016 193.205,355.622016 193.205,357.701016 L193.205,408.462016 C192.29,408.628016 190.937,408.857016 189.148,409.148016 C187.359,409.439016 185.549,409.585016 183.718,409.585016 C181.887,409.585016 180.243,409.460016 178.787,409.210016 C177.33,408.961016 176.103,408.462016 175.104,407.714016 C174.105,406.965016 173.335,405.947016 172.794,404.658016 C172.253,403.369016 171.983,401.686016 171.983,399.607016 L171.983,360.223016 C175.699,356.340016 179.289,352.443016 182.711,348.605016 L183.448,347.776016 Z M158.1268,374.039016 L158.1258,408.462016 C157.2108,408.628016 155.8578,408.857016 154.0688,409.148016 C152.2798,409.439016 150.4698,409.585016 148.6388,409.585016 C146.8078,409.585016 145.1638,409.460016 143.7078,409.210016 C142.2508,408.961016 141.0238,408.462016 140.0248,407.714016 C139.0258,406.965016 138.2558,405.947016 137.7148,404.658016 C137.1748,403.369016 136.9038,401.686016 136.9038,399.607016 L136.9038,399.607016 L136.9038,392.450016 C144.0438,386.877016 151.1968,380.611016 158.1268,374.039016 L158.1268,374.039016 Z M97.333,346.101716 C102.077,346.101716 106.384,346.704716 110.254,347.910716 C114.124,349.116716 117.39,350.675716 120.053,352.587716 C124.737,355.862716 125.395,362.581716 125.421,366.151716 L125.421,366.151716 L125.421,366.374716 L125.422,379.070716 C118.443,382.223716 111.518,384.233716 105.072,384.427716 L105.072,384.427716 L105.073,366.526716 C105.073,365.464716 104.127,363.665716 102.514,363.188716 C100.901,362.711716 99.996,362.689716 98.332,362.689716 C94.254,362.689716 91.195,363.832716 89.156,366.119716 C87.118,368.405716 86.098,371.668716 86.098,375.906716 C85.666,390.747716 97.657,393.570716 116.862,387.861716 C125.291,385.355716 133.125,381.315716 141.803,375.066716 C144.856,373.099716 148.461,370.167716 152.175,366.919716 C158.101,361.924716 164.566,355.975716 171.913,348.912716 C171.936,348.905716 171.96,348.901716 171.983,348.895716 L171.983,348.895716 L171.983,348.845716 C172.898,348.679716 174.251,348.450716 176.04,348.159716 C177.063,347.993716 178.092,347.874716 179.128,347.803716 L179.128,347.803716 L179.545,347.779716 C179.095,348.255716 178.615,348.749716 178.155,349.232716 C178.154,349.236716 178.154,349.240716 178.153,349.245716 C177.405,350.028716 176.643,350.821716 175.87,351.619716 C175.858,351.632716 175.845,351.645716 175.833,351.658716 C174.687,352.842716 173.508,354.044716 172.312,355.254716 L172.312,355.254716 L171.984,355.588716 C149.169,378.604716 117.732,405.302716 94.056,405.302716 C93.146,405.302716 92.272,405.305716 91.433,405.310716 C88.247,405.179716 85.199,404.628716 82.29,403.660716 C78.92,402.537716 75.965,400.791716 73.427,398.421716 C70.889,396.052716 68.85,392.996716 67.31,389.255716 C65.77,385.513716 65,381.065716 65,375.910716 C65,370.838716 65.812,366.431716 67.435,362.689716 C69.058,358.948716 71.305,355.850716 74.176,353.398716 C77.047,350.945716 80.459,349.116716 84.413,347.910716 C88.366,346.704716 92.673,346.101716 97.333,346.101716 Z M146.3911,326.146716 C148.2221,326.146716 149.8661,326.271716 151.3221,326.521716 C152.7791,326.770716 154.0061,327.269716 155.0051,328.017716 C156.0041,328.766716 156.7741,329.784716 157.3151,331.073716 C157.8551,332.362716 158.1261,334.045716 158.1261,336.124716 L158.1261,336.124716 L158.1271,357.506716 C151.6221,362.980716 144.3681,368.415716 136.9031,372.954716 L136.9031,372.954716 L136.9041,327.269716 C137.8191,327.103716 139.1721,326.874716 140.9611,326.583716 C142.7501,326.292716 144.5601,326.146716 146.3911,326.146716 Z" id="gli" fill="#398DE0"></path>
    </g>
</svg>