<svg width="196" height="36" viewBox="0 0 196 36" fill="none" xmlns="http://www.w3.org/2000/svg">
    <path fill-rule="evenodd" clip-rule="evenodd"
          d="M104.518 28.2739C103.926 28.3565 103.313 28.3979 102.679 28.3979C102.073 28.3979 101.528 28.3565 101.046 28.2739C100.564 28.1912 100.157 28.0258 99.8266 27.7778C99.4959 27.5298 99.241 27.1922 99.0619 26.7651C98.8827 26.338 98.7932 25.7799 98.7932 25.091V7.97786C98.7932 6.57243 99.0343 5.3668 99.5166 4.36095C99.9988 3.35511 100.653 2.52839 101.48 1.88079C102.307 1.23319 103.278 0.757828 104.394 0.454697C105.51 0.151566 106.702 0 107.97 0C110.009 0 111.511 0.268684 112.475 0.806053C113.44 1.34342 113.922 2.2597 113.922 3.5549C113.922 4.10605 113.805 4.60208 113.571 5.043C113.337 5.48392 113.082 5.81461 112.806 6.03506C112.283 5.89728 111.738 5.78016 111.173 5.68371C110.608 5.58726 109.954 5.53903 109.21 5.53903C108.025 5.53903 107.102 5.73882 106.44 6.1384C105.779 6.53799 105.448 7.23381 105.448 8.22587V9.54863H112.227C112.393 9.85176 112.551 10.2307 112.703 10.6854C112.854 11.1401 112.93 11.643 112.93 12.1941C112.93 13.1586 112.717 13.8545 112.289 14.2816C111.862 14.7087 111.29 14.9223 110.574 14.9223H105.82V28.0258C105.545 28.1085 105.111 28.1912 104.518 28.2739ZM67.047 28.4805C65.9447 28.6458 64.9113 28.7285 63.9468 28.7285C62.321 28.7285 60.8122 28.5011 59.4205 28.0464C58.0289 27.5917 56.8164 26.9097 55.783 26.0003C54.7496 25.0909 53.9366 23.9473 53.3441 22.5694C52.7517 21.1915 52.4554 19.5794 52.4554 17.7331C52.4554 15.9143 52.7517 14.3504 53.3441 13.0414C53.9366 11.7325 54.7151 10.6577 55.6796 9.81723C56.6441 8.97673 57.7464 8.35669 58.9865 7.95711C60.2266 7.55753 61.4942 7.35774 62.7894 7.35774C64.25 7.35774 65.5796 7.5782 66.7784 8.01911C67.9771 8.46003 69.0105 9.06629 69.8786 9.8379C70.7466 10.6095 71.4218 11.5327 71.904 12.6074C72.3863 13.6822 72.6274 14.8533 72.6274 16.121C72.6274 17.0579 72.3656 17.7744 71.842 18.2705C71.3184 18.7665 70.5882 19.0834 69.6512 19.2212L59.4412 20.7506C59.7443 21.66 60.3644 22.3421 61.3013 22.7968C62.2383 23.2515 63.313 23.4788 64.5255 23.4788C65.6554 23.4788 66.7232 23.3341 67.7291 23.0448C68.7349 22.7554 69.5548 22.4178 70.1886 22.032C70.6295 22.3076 71.0015 22.6934 71.3047 23.1894C71.6078 23.6855 71.7594 24.2091 71.7594 24.7602C71.7594 26.0003 71.1806 26.9235 70.0232 27.5297C69.1414 27.9982 68.1493 28.3151 67.047 28.4805ZM41.9148 28.5631C42.8242 28.5631 43.6784 28.4598 44.4776 28.2531C45.2768 28.0464 45.8692 27.7777 46.255 27.4471C46.4479 26.951 46.6753 26.2483 46.9371 25.3389C47.1989 24.4295 47.4745 23.4099 47.7638 22.2801C48.0532 21.1502 48.3425 19.979 48.6319 18.7665C48.9212 17.554 49.1761 16.3966 49.3966 15.2943C49.617 14.192 49.7962 13.1999 49.934 12.3181C50.0717 11.4362 50.1406 10.7749 50.1406 10.3339C50.1406 9.31431 49.8237 8.59782 49.1899 8.18446C48.5561 7.7711 47.7569 7.56442 46.7924 7.56442C46.2413 7.56442 45.6901 7.63331 45.139 7.7711C44.5878 7.90889 44.0642 8.12934 43.5682 8.43248C43.3202 10.8024 43.0515 13.131 42.7621 15.4183C42.4728 17.7055 42.1766 19.9101 41.8734 22.032H41.6667C41.5841 21.5911 41.4463 20.9917 41.2534 20.2339C41.0605 19.4761 40.84 18.608 40.592 17.6297C40.344 16.6515 40.0684 15.5905 39.7653 14.4469C39.4622 13.3032 39.1452 12.1252 38.8146 10.9126C38.6217 10.2788 38.1807 9.81034 37.4918 9.50721C36.8029 9.20408 35.9761 9.05252 35.0116 9.05252C34.2125 9.05252 33.5442 9.13519 33.0068 9.30053C32.4695 9.46588 31.9252 9.70011 31.3741 10.0032C31.0709 11.2433 30.7678 12.4903 30.4647 13.7442C30.1615 14.998 29.8722 16.1623 29.5966 17.2371C29.321 18.3118 29.0799 19.2694 28.8732 20.1099C28.6666 20.9504 28.5219 21.5911 28.4392 22.032H28.2739C28.2187 21.7565 28.1567 21.3913 28.0879 20.9366C28.019 20.4819 27.9225 19.8206 27.7985 18.9525C27.6745 18.0844 27.516 16.9684 27.3231 15.6043C27.1302 14.2402 26.896 12.511 26.6204 10.4166C26.4826 9.36943 26.1037 8.63227 25.4837 8.20513C24.8636 7.77799 24.0714 7.56442 23.1069 7.56442C22.3352 7.56442 21.6256 7.70909 20.978 7.99845C20.3305 8.2878 19.8137 8.62538 19.4279 9.01118C19.6208 10.3615 19.8895 11.9185 20.234 13.6822C20.5785 15.4458 20.9436 17.1819 21.3294 18.8905C21.7152 20.5991 22.1079 22.1698 22.5075 23.6028C22.9071 25.0358 23.2584 26.083 23.5616 26.7443C23.8371 27.3231 24.3883 27.7709 25.215 28.0878C26.0417 28.4047 27.02 28.5631 28.1499 28.5631C29.0592 28.5631 29.8446 28.4598 30.506 28.2531C31.1674 28.0464 31.691 27.7777 32.0768 27.4471C32.2146 26.951 32.4075 26.2965 32.6555 25.4836C32.9035 24.6707 33.1722 23.775 33.4615 22.7968C33.7509 21.8185 34.0334 20.8126 34.3089 19.7792C34.5845 18.7458 34.8187 17.7469 35.0116 16.7824C35.177 17.6918 35.3837 18.6356 35.6317 19.6139C35.8797 20.5922 36.1415 21.536 36.4171 22.4454C36.6926 23.3548 36.9544 24.1884 37.2024 24.9462C37.4505 25.7041 37.6571 26.331 37.8225 26.827C38.2359 27.9844 39.5999 28.5631 41.9148 28.5631ZM15.129 28.0671C15.8455 28.0671 16.4173 27.8536 16.8444 27.4264C17.2716 26.9993 17.4852 26.3035 17.4852 25.339C17.4852 24.7878 17.4094 24.278 17.2578 23.8095C17.1062 23.3411 16.9478 22.9552 16.7824 22.6521H8.68057L15.625 14.3022C16.0108 13.8338 16.3346 13.3308 16.5964 12.7935C16.8582 12.2561 16.9891 11.7118 16.9891 11.1607C16.9891 10.4993 16.8582 9.90683 16.5964 9.38324C16.3346 8.85965 15.9833 8.40496 15.5424 8.01915H2.5215C1.80501 8.01915 1.23319 8.23272 0.806053 8.65986C0.378914 9.087 0.165344 9.78283 0.165344 10.7473C0.165344 11.2985 0.241127 11.8083 0.392693 12.2768C0.544258 12.7452 0.702713 13.131 0.868057 13.4342H8.47389L1.36409 21.7841C0.978287 22.2525 0.654488 22.7555 0.392693 23.2928C0.130898 23.8302 0 24.3745 0 24.9256C0 25.587 0.130898 26.1795 0.392693 26.7031C0.654488 27.2266 1.00584 27.6813 1.44676 28.0671H15.129ZM58.9453 16.1211C58.9728 15.6802 59.0624 15.2462 59.2139 14.8191C59.3655 14.3919 59.5929 14.0061 59.896 13.6616C60.1991 13.3172 60.5918 13.0347 61.0741 12.8143C61.5563 12.5938 62.1281 12.4836 62.7895 12.4836C63.8091 12.4836 64.5807 12.7591 65.1043 13.3103C65.6279 13.8614 65.931 14.4126 66.0137 14.9637L58.9453 16.1211ZM89.7405 28.4805C88.6382 28.6458 87.6048 28.7285 86.6403 28.7285C85.0144 28.7285 83.5056 28.5011 82.114 28.0464C80.7224 27.5917 79.5098 26.9097 78.4764 26.0003C77.443 25.0909 76.6301 23.9473 76.0376 22.5694C75.4451 21.1915 75.1489 19.5794 75.1489 17.7331C75.1489 15.9143 75.4451 14.3504 76.0376 13.0414C76.6301 11.7325 77.4086 10.6577 78.3731 9.81723C79.3376 8.97673 80.4399 8.35669 81.68 7.95711C82.9201 7.55753 84.1877 7.35774 85.4829 7.35774C86.9434 7.35774 88.2731 7.5782 89.4718 8.01911C90.6706 8.46003 91.704 9.06629 92.572 9.8379C93.4401 10.6095 94.1152 11.5327 94.5975 12.6074C95.0797 13.6822 95.3209 14.8533 95.3209 16.121C95.3209 17.0579 95.0591 17.7744 94.5355 18.2705C94.0119 18.7665 93.2816 19.0834 92.3447 19.2212L82.1347 20.7506C82.4378 21.66 83.0578 22.3421 83.9948 22.7968C84.9317 23.2515 86.0065 23.4788 87.219 23.4788C88.3489 23.4788 89.4167 23.3341 90.4225 23.0448C91.4284 22.7554 92.2482 22.4178 92.882 22.032C93.323 22.3076 93.695 22.6934 93.9981 23.1894C94.3012 23.6855 94.4528 24.2091 94.4528 24.7602C94.4528 26.0003 93.8741 26.9235 92.7167 27.5297C91.8349 27.9982 90.8428 28.3151 89.7405 28.4805ZM81.6387 16.1211C81.6663 15.6802 81.7558 15.2462 81.9074 14.8191C82.059 14.3919 82.2863 14.0061 82.5894 13.6616C82.8926 13.3172 83.2853 13.0347 83.7675 12.8143C84.2498 12.5938 84.8216 12.4836 85.483 12.4836C86.5026 12.4836 87.2742 12.7591 87.7978 13.3103C88.3214 13.8614 88.6245 14.4126 88.7072 14.9637L81.6387 16.1211Z"
          fill="white" fill-opacity="0.9"/>
    <path fill-rule="evenodd" clip-rule="evenodd"
          d="M136.574 28.7285C139.826 28.7285 142.348 28.1912 144.139 27.1164C144.69 26.7857 145.165 26.393 145.565 25.9383C145.964 25.4837 146.164 24.8981 146.164 24.1816V14.9223C146.164 13.6271 145.93 12.5041 145.461 11.5534C144.993 10.6027 144.325 9.81728 143.457 9.19724C142.589 8.5772 141.541 8.11562 140.315 7.81248C139.089 7.50935 137.732 7.35779 136.244 7.35779C135.279 7.35779 134.253 7.42668 133.164 7.56447C132.075 7.70226 131.132 7.92271 130.332 8.22585C129.616 8.52898 129.086 8.89411 128.741 9.32125C128.397 9.74839 128.224 10.3202 128.224 11.0367C128.224 11.5878 128.348 12.1183 128.596 12.6281C128.844 13.1379 129.148 13.5169 129.506 13.7649C130.305 13.4342 131.201 13.1586 132.193 12.9382C133.185 12.7177 134.204 12.6075 135.251 12.6075C136.574 12.6075 137.587 12.7797 138.29 13.1242C138.992 13.4686 139.344 14.0405 139.344 14.8396V15.129L133.929 15.7077C131.559 15.9557 129.809 16.5895 128.679 17.6091C127.549 18.6288 126.984 20.0893 126.984 21.9908C126.984 23.1206 127.212 24.1127 127.666 24.9669C128.121 25.8212 128.769 26.5239 129.609 27.0751C130.45 27.6262 131.455 28.0396 132.627 28.3152C133.798 28.5907 135.114 28.7285 136.574 28.7285ZM119.254 28.7699C120.495 28.7699 121.473 28.3841 122.189 27.6125C122.906 26.8409 123.264 25.8764 123.264 24.719C123.264 23.5616 122.906 22.5971 122.189 21.8255C121.473 21.0539 120.495 20.6681 119.254 20.6681C118.014 20.6681 117.036 21.0539 116.32 21.8255C115.603 22.5971 115.245 23.5616 115.245 24.719C115.245 25.8764 115.603 26.8409 116.32 27.6125C117.036 28.3841 118.014 28.7699 119.254 28.7699ZM134.404 23.0862C134.831 23.4306 135.555 23.6029 136.574 23.6029C137.043 23.6029 137.559 23.5546 138.124 23.4582C138.689 23.3617 139.109 23.2308 139.385 23.0655V19.7586L136.409 20.0066C135.637 20.0617 135.003 20.2271 134.507 20.5027C134.011 20.7782 133.763 21.1916 133.763 21.7427C133.763 22.2939 133.977 22.7417 134.404 23.0862ZM154.308 35.425C154.941 35.425 155.561 35.3767 156.168 35.2803C156.774 35.1838 157.215 35.0943 157.49 35.0116V28.1498C158.51 28.5081 159.612 28.6872 160.797 28.6872C162.368 28.6872 163.794 28.4667 165.076 28.0258C166.357 27.5849 167.452 26.9166 168.362 26.021C169.271 25.1254 169.974 24.0162 170.47 22.6935C170.966 21.3707 171.214 19.8275 171.214 18.0638C171.214 16.2175 170.925 14.626 170.346 13.2895C169.767 11.953 168.968 10.8438 167.948 9.96196C166.929 9.08012 165.709 8.42564 164.29 7.9985C162.871 7.57136 161.335 7.35779 159.681 7.35779C158.11 7.35779 156.691 7.52313 155.424 7.85382C154.156 8.18451 153.095 8.62543 152.241 9.17657C151.69 9.56238 151.256 9.98952 150.939 10.458C150.622 10.9265 150.463 11.5327 150.463 12.2768V32.1181C150.463 32.807 150.546 33.3651 150.711 33.7922C150.877 34.2193 151.125 34.5569 151.455 34.8049C151.786 35.0529 152.193 35.2183 152.675 35.301C153.157 35.3836 153.701 35.425 154.308 35.425ZM158.524 22.9827C158.91 23.093 159.323 23.1481 159.764 23.1481C162.602 23.1481 164.021 21.4533 164.021 18.0637C164.021 16.3001 163.67 14.9911 162.967 14.1368C162.265 13.2825 161.252 12.8554 159.929 12.8554C159.406 12.8554 158.937 12.9174 158.524 13.0414C158.11 13.1654 157.752 13.3101 157.449 13.4754V22.5694C157.78 22.7347 158.138 22.8725 158.524 22.9827ZM178.489 35.425C179.123 35.425 179.743 35.3767 180.349 35.2803C180.956 35.1838 181.396 35.0943 181.672 35.0116V28.1498C182.692 28.5081 183.794 28.6872 184.979 28.6872C186.55 28.6872 187.976 28.4667 189.257 28.0258C190.539 27.5849 191.634 26.9166 192.543 26.021C193.453 25.1254 194.155 24.0162 194.652 22.6935C195.148 21.3707 195.396 19.8275 195.396 18.0638C195.396 16.2175 195.106 14.626 194.528 13.2895C193.949 11.953 193.15 10.8438 192.13 9.96196C191.11 9.08012 189.891 8.42564 188.472 7.9985C187.053 7.57136 185.516 7.35779 183.863 7.35779C182.292 7.35779 180.873 7.52313 179.605 7.85382C178.338 8.18451 177.277 8.62543 176.422 9.17657C175.871 9.56238 175.437 9.98952 175.12 10.458C174.803 10.9265 174.645 11.5327 174.645 12.2768V32.1181C174.645 32.807 174.728 33.3651 174.893 33.7922C175.058 34.2193 175.306 34.5569 175.637 34.8049C175.968 35.0529 176.374 35.2183 176.856 35.301C177.339 35.3836 177.883 35.425 178.489 35.425ZM182.705 22.9827C183.091 23.093 183.505 23.1481 183.945 23.1481C186.784 23.1481 188.203 21.4533 188.203 18.0637C188.203 16.3001 187.852 14.9911 187.149 14.1368C186.446 13.2825 185.434 12.8554 184.111 12.8554C183.587 12.8554 183.119 12.9174 182.705 13.0414C182.292 13.1654 181.934 13.3101 181.631 13.4754V22.5694C181.961 22.7347 182.32 22.8725 182.705 22.9827Z"
          fill="white" fill-opacity="0.7"/>
</svg>
